<?xml version="1.0" encoding="UTF-8" standalone="no"?>
<!-- Uploaded to: SVG Repo, www.svgrepo.com, Generator: SVG Repo Mixer Tools -->

<svg
   fill="#000000"
   version="1.1"
   id="Capa_1"
   width="680.33313"
   height="353.4577"
   viewBox="0 0 760.12175 394.91078"
   xml:space="preserve"
   sodipodi:docname="flecheRetour.svg"
   inkscape:version="1.1.2 (0a00cf5339, 2022-02-04)"
   xmlns:inkscape="http://www.inkscape.org/namespaces/inkscape"
   xmlns:sodipodi="http://sodipodi.sourceforge.net/DTD/sodipodi-0.dtd"
   xmlns="http://www.w3.org/2000/svg"
   xmlns:svg="http://www.w3.org/2000/svg"><defs
   id="defs101" /><sodipodi:namedview
   id="namedview99"
   pagecolor="#ffffff"
   bordercolor="#666666"
   borderopacity="1.0"
   inkscape:pageshadow="2"
   inkscape:pageopacity="0.0"
   inkscape:pagecheckerboard="0"
   showgrid="false"
   inkscape:zoom="0.71329397"
   inkscape:cx="520.82314"
   inkscape:cy="173.1404"
   inkscape:window-width="1846"
   inkscape:window-height="1016"
   inkscape:window-x="0"
   inkscape:window-y="0"
   inkscape:window-maximized="1"
   inkscape:current-layer="Capa_1" />
<g
   id="g96"
   transform="translate(-5.1772444e-5,-262.80905)">
	<path
   d="M 737.34601,499.92273 C 682.12149,386.79678 634.99038,396.26192 531.63655,394.423 H 178.608 l 42.272,-41.769 c 20.625,-20.379 20.824,-53.62 0.445,-74.245 -20.379,-20.625 -53.62,-20.824 -74.245,-0.445 L 15.6,407.878 c -20.625,20.379 -20.824,53.619 -0.445,74.244 l 131.682,133.271 c 10.27,10.394 23.804,15.6 37.347,15.6 13.329,0 26.667,-5.046 36.898,-15.154 20.625,-20.38 20.825,-53.62 0.446,-74.245 l -41.669,-42.171 h 352.42198 l 3.62664,-0.03 c 0.263,-0.007 50.64817,-1.16786 66.43517,11.0132 26.93887,20.65347 31.49487,34.61093 56.07393,107.05009 13.81832,34.0313 33.89693,40.21096 45.92373,40.26288 12.02289,0.0519 18.49336,-3.02362 26.65002,-7.51668 41.56388,-22.60314 33.99592,-90.74146 6.35554,-150.27976 z"
   id="path94"
   sodipodi:nodetypes="ccccsccccscccccccscc" />
</g>
</svg>
